# xmcd
#
# Track frame offsets:
# 150
# 16049
# 30736
# 46062
# 58436
# 72567
# 84532
# 99402
# 114590
# 125248
# 140011
# 153947
# 168796
# 184396
# 196364
# 208341
# 223092
# 249165
#
# Disc length: 4362 seconds
#
# Revision: 0
# Processed by: cddbd v1.5.1PL0 Copyright (c) Steve Scherf et al.
# Submitted via: Audion 3.0.2 (http://www.panic.com/audion/)
#
DISCID=0b110812
DTITLE=Orioles - 50th Anniversary
DYEAR=1900
DGENRE=
TTITLE0=Skylark
TTITLE1=Manhattan
TTITLE2=Needless
TTITLE3=G.I. Wish
TTITLE4=May That Day never Come
TTITLE5=I Had the Craziest Dream
TTITLE6=Rose Ann of Charing Cross
TTITLE7=What do you know about Love?
TTITLE8=Magic Moon
TTITLE9=Walkin By The River
TTITLE10=Into Each Life Some Rain Must fall
TTITLE11=We Three
TTITLE12=if I didn't care
TTITLE13=to Each His Own
TTITLE14=The Gypsy
TTITLE15=I Don"t Want To Set The World on Fire
TTITLE16=Blueberry Hill
TTITLE17=Interview with Sonny Till
EXTD=
EXTT0=
EXTT1=
EXTT2=
EXTT3=
EXTT4=
EXTT5=
EXTT6=
EXTT7=
EXTT8=
EXTT9=
EXTT10=
EXTT11=
EXTT12=
EXTT13=
EXTT14=
EXTT15=
EXTT16=
EXTT17=
PLAYORDER=
